<?xml version="1.0" encoding="UTF-8"?>
<svg xmlns="http://www.w3.org/2000/svg" viewBox="0 0 128 128" role="img" aria-labelledby="title">
  <title>minesweeper icon</title>
  <rect width="128" height="128" rx="32" fill="#94a3b8" />
  
    <rect x="10" y="10" width="108" height="108" rx="28" fill="#94a3b8" />
    <g transform="translate(24 24)">
      <rect x="0" y="0" width="80" height="80" rx="14" fill="#1f2937" />
      <rect x="8" y="8" width="16" height="16" rx="4" fill="#334155" /><rect x="32" y="8" width="16" height="16" rx="4" fill="#334155" /><rect x="56" y="8" width="16" height="16" rx="4" fill="#334155" /><rect x="8" y="32" width="16" height="16" rx="4" fill="#334155" /><rect x="32" y="32" width="16" height="16" rx="4" fill="#ef4444" /><rect x="56" y="32" width="16" height="16" rx="4" fill="#334155" /><rect x="8" y="56" width="16" height="16" rx="4" fill="#334155" /><rect x="32" y="56" width="16" height="16" rx="4" fill="#334155" /><rect x="56" y="56" width="16" height="16" rx="4" fill="#334155" />
      <circle cx="48" cy="48" r="6" fill="#f8fafc" />
    </g>
  
</svg>
